<?xml version="1.0" standalone="no"?><!DOCTYPE svg PUBLIC "-//W3C//DTD SVG 1.1//EN" "http://www.w3.org/Graphics/SVG/1.1/DTD/svg11.dtd"><svg class="icon" width="200px" height="200.00px" viewBox="0 0 1024 1024" version="1.1" xmlns="http://www.w3.org/2000/svg"><path fill="#333333" d="M1018.357 253.189c-6.237-11.157-16.693-19.347-28.813-23.411 0 0-52.107-13.68-94.578-23.465-33.412-7.697-68.305-7.101-101.239 2.434-13.278 3.843-26.235 8.833-38.715 14.963-7.3 3.586-13.723 7.175-18.508 10.499l-451.837 319.748c-9.82 6.817-22.336 8.448-33.573 4.373l-189.591-68.752c-11.686-4.238-24.723-2.298-34.667 5.161l-8.339 6.253c-18.415 13.81-19.797 40.937-2.884 56.548l174.74 206.406c11.084 10.23 27.284 12.674 40.892 6.163l243.765-116.615-52.031 184.336c-4.148 14.697 2.724 30.27 16.378 37.11v0c7.495 3.756 16.17 4.403 24.14 1.803l44.241-14.438c21.327-6.96 39.163-21.85 49.819-41.591l222.762-354.352 230.622-166.436c5.899-5.249 9.888-12.306 11.343-20.067l0.654-3.487c1.525-8.133-0.56-15.993-4.58-23.184z" /></svg>