<?xml version="1.0" standalone="no"?><!DOCTYPE svg PUBLIC "-//W3C//DTD SVG 1.1//EN" "http://www.w3.org/Graphics/SVG/1.1/DTD/svg11.dtd"><svg class="icon" width="200px" height="200.00px" viewBox="0 0 1024 1024" version="1.1" xmlns="http://www.w3.org/2000/svg"><path fill="#1296db" d="M874.666667 469.333333l-85.333333 0 0 85.333333 85.333333 0L874.666667 469.333333zM618.666667 618.666667l-85.333333 0 0 85.333333 85.333333 0L618.666667 618.666667zM618.666667 768l-85.333333 0 0 85.333333 85.333333 0L618.666667 768zM746.666667 618.666667l-85.333333 0 0 85.333333 85.333333 0L746.666667 618.666667zM618.666667 469.333333l-85.333333 0 0 85.333333 85.333333 0L618.666667 469.333333zM874.666667 618.666667l-85.333333 0 0 85.333333 85.333333 0L874.666667 618.666667zM746.666667 469.333333l-85.333333 0 0 85.333333 85.333333 0L746.666667 469.333333zM490.666667 469.333333l-85.333333 0 0 85.333333 85.333333 0L490.666667 469.333333zM234.666667 618.666667 149.333333 618.666667l0 85.333333 85.333333 0L234.666667 618.666667zM362.666667 768l-85.333333 0 0 85.333333 85.333333 0L362.666667 768zM234.666667 469.333333 149.333333 469.333333l0 85.333333 85.333333 0L234.666667 469.333333zM234.666667 768 149.333333 768l0 85.333333 85.333333 0L234.666667 768zM490.666667 618.666667l-85.333333 0 0 85.333333 85.333333 0L490.666667 618.666667zM896 128l-85.333333 0L810.666667 64c0-12.8-8.533333-21.333333-21.333333-21.333333s-21.333333 8.533333-21.333333 21.333333l0 64L256 128 256 64c0-12.8-8.533333-21.333333-21.333333-21.333333s-21.333333 8.533333-21.333333 21.333333l0 64L128 128c-46.933333 0-85.333333 38.4-85.333333 85.333333l0 128 0 42.666667 0 512c0 46.933333 38.4 85.333333 85.333333 85.333333l768 0c46.933333 0 85.333333-38.4 85.333333-85.333333L981.333333 384l0-42.666667 0-128C981.333333 166.4 942.933333 128 896 128zM938.666667 896c0 23.466667-19.2 42.666667-42.666667 42.666667L128 938.666667c-23.466667 0-42.666667-19.2-42.666667-42.666667L85.333333 384l853.333333 0L938.666667 896zM938.666667 341.333333 85.333333 341.333333l0-128c0-23.466667 19.2-42.666667 42.666667-42.666667l85.333333 0 0 64c0 12.8 8.533333 21.333333 21.333333 21.333333s21.333333-8.533333 21.333333-21.333333L256 170.666667l512 0 0 64c0 12.8 8.533333 21.333333 21.333333 21.333333s21.333333-8.533333 21.333333-21.333333L810.666667 170.666667l85.333333 0c23.466667 0 42.666667 19.2 42.666667 42.666667L938.666667 341.333333zM362.666667 618.666667l-85.333333 0 0 85.333333 85.333333 0L362.666667 618.666667zM490.666667 768l-85.333333 0 0 85.333333 85.333333 0L490.666667 768zM362.666667 469.333333l-85.333333 0 0 85.333333 85.333333 0L362.666667 469.333333z" /></svg>