<?xml version="1.0" standalone="no"?><!DOCTYPE svg PUBLIC "-//W3C//DTD SVG 1.1//EN" "http://www.w3.org/Graphics/SVG/1.1/DTD/svg11.dtd"><svg class="icon" width="200px" height="200.00px" viewBox="0 0 1024 1024" version="1.1" xmlns="http://www.w3.org/2000/svg"><path fill="#1296db" d="M798 629c0-7.2-5.8-13-13-13L499 616l-52 39 338 0c7.2 0 13-5.8 13-13L798 629zM785 720 278 720c-7.2 0-13 5.8-13 13l0 13c0 7.2 5.8 13 13 13l507 0c7.2 0 13-5.8 13-13l0-13C798 725.8 792.2 720 785 720zM798 538l0-13c0-7.2-5.8-13-13-13L603 512l-13 39 195 0C792.2 551 798 545.2 798 538zM446.9 273.6l-9.3-9.1c-5.2-5-14.3-4-20.4 2.3L355 330.6c-1.8-0.3-3.6-0.6-5.5-0.6-25.1 0-45.5 20.4-45.5 45.5 0 18.6 11.1 34.5 27.1 41.5-0.7 1.9-1.1 3.9-1.1 6.1l0 60.7c0 8.4 5.8 15.2 13 15.2l13 0c7.2 0 13-6.8 13-15.2l0-60.7c0-2.2-0.4-4.2-1.1-6.1 16-7.1 27.1-23 27.1-41.5 0-8.6-2.5-16.5-6.6-23.3l56.7-58.1C451.3 287.8 452.1 278.6 446.9 273.6zM349.5 603C475.2 603 577 501.2 577 375.5 577 249.9 475.2 148 349.5 148c-29.2 0-57 5.7-82.7 15.7l22.3 33.4c19-6.5 39.3-10.1 60.4-10.1C453.6 187 538 271.4 538 375.5 538 479.6 453.6 564 349.5 564 245.4 564 161 479.6 161 375.5c0-33.9 9.4-65.3 25-92.8l40 34.3c0 0 12 6.1 13-13 0 0 0-90.4 0-91-0.4-9.6-2.2-12.7-13-13-1-0.6-91 13-91 13s-21.5 7 0 26l20.7 17.7c-21.3 34.6-33.7 75.2-33.7 118.8C122 501.2 223.8 603 349.5 603zM863 265l-78 0 0-13c0-7.2-5.8-13-13-13l-52 0c-7.2 0-13 5.8-13 13l0 13-104 0c4.3 10.3 13 39 13 39l91 0 0 13c0 7.2 5.8 13 13 13l52 0c7.2 0 13-5.8 13-13l0-13 78 0 0 104L616 408l0 39 247 0 0 390L213 837 213 616l-39-26 0 247c0 21.5 17.5 39 39 39l650 0c21.5 0 39-17.5 39-39L902 304C902 282.4 884.5 265 863 265z" /></svg>