<?xml version="1.0" standalone="no"?><!DOCTYPE svg PUBLIC "-//W3C//DTD SVG 1.1//EN" "http://www.w3.org/Graphics/SVG/1.1/DTD/svg11.dtd"><svg class="icon" width="200px" height="200.00px" viewBox="0 0 1024 1024" version="1.1" xmlns="http://www.w3.org/2000/svg"><path fill="#1afa29" d="M317.235666 831.366701l338.493318-334.032726L317.235666 163.30125l2.688225-2.664689c-1.736551-2.856048-2.962471-5.996574-2.962471-9.565866 0-10.636245 8.709359-19.2269 19.487843-19.2269 3.628644 0 6.804986 1.213641 9.68457 2.90312l2.700505-2.664689 357.708961 353.020172-2.689249 2.664689c1.736551 2.856048 2.963495 5.996574 2.963495 9.565866 0 3.545756-1.225921 6.709819-2.938935 9.565866l2.689249 2.641153L348.835362 862.561168l-2.700505-2.641153c-2.879584 1.689479-6.055926 2.90312-9.68457 2.90312-10.778484 0-19.487843-8.614192-19.487843-19.25146 0-3.568269 1.225921-6.709819 2.938935-9.541307L317.235666 831.366701 317.235666 831.366701zM317.235666 831.366701" /></svg>