<?xml version="1.0" standalone="no"?><!DOCTYPE svg PUBLIC "-//W3C//DTD SVG 1.1//EN" "http://www.w3.org/Graphics/SVG/1.1/DTD/svg11.dtd"><svg class="icon" width="200px" height="200.00px" viewBox="0 0 1024 1024" version="1.1" xmlns="http://www.w3.org/2000/svg"><path fill="#1296db" d="M803.9424 171.2128v-48.7424c0-26.9312-21.8112-48.7424-48.7424-48.7424H72.96c-26.9312 0-48.7424 21.8112-48.7424 48.7424v341.0944c0 161.4848 130.9184 292.4032 292.4032 292.4032h194.9184c123.9552 0.0512 234.496-78.0288 275.8144-194.9184h16.5888c107.6224 0 194.9184-87.296 194.9184-194.9184 0-107.6736-87.296-194.9184-194.9184-194.9184z m0 292.352V268.6464c53.8112 0 97.4336 43.6224 97.4336 97.4848 0 53.8112-43.6224 97.4336-97.4336 97.4336z m0 438.5792c0 26.9312-21.8112 48.7424-48.7424 48.7424H72.96c-26.9312 0-48.7424-21.8112-48.7424-48.7424s21.8112-48.7424 48.7424-48.7424H755.2c26.9312 0.0512 48.7424 21.8624 48.7424 48.7424z m0 0" /></svg>