<?xml version="1.0" standalone="no"?><!DOCTYPE svg PUBLIC "-//W3C//DTD SVG 1.1//EN" "http://www.w3.org/Graphics/SVG/1.1/DTD/svg11.dtd"><svg class="icon" width="200px" height="200.00px" viewBox="0 0 1024 1024" version="1.1" xmlns="http://www.w3.org/2000/svg"><path fill="#333333" d="M512.54272 72.54016c-242.0736 0-438.30272 196.89984-438.30272 439.79776s196.22912 439.79776 438.30272 439.79776c242.06336 0 438.30272-196.89984 438.30272-439.79776S754.6112 72.54016 512.54272 72.54016zM706.65216 433.42336l-208.61952 209.85344 0-0.02048c-6.30784 6.3488-14.98624 10.25024-24.6272 10.25024-9.6 0-18.31424-3.9424-24.60672-10.25024L310.1952 503.66976c-6.28736-6.2976-10.16832-15.0016-10.16832-24.62208 0-19.3024 15.5904-34.91328 34.76992-34.91328 9.62048 0 18.31936 3.92192 24.6272 10.25024l113.98144 114.81088 184.01792-185.088c6.29248-6.3232 15.0272-10.21952 24.62208-10.21952 19.18464 0 34.75456 15.616 34.75456 34.87232C716.8 418.39616 712.91904 427.11552 706.65216 433.42336z" /></svg>